<svg xmlns="http://www.w3.org/2000/svg" width="520" height="520" viewBox="0 0 520 520">
    <path fill="currentColor" d="M78.018 0h76.742c-.32 42.94-34.534 77.715-76.742 77.715V0z" transform="translate(-1300 -1236) translate(1300 992) translate(0 244) translate(156 104)"/>
    <path fill="currentColor" d="M65.547 205.88c0-21.715 17.107-39.347 38.371-39.347V99.756c-19.186 0-35.333 4.408-51.96 14.205-49.724 29.224-66.67 94.205-38.052 144.98l56.757-33.468c-3.357-5.878-5.116-12.408-5.116-19.593z" transform="translate(-1300 -1236) translate(1300 992) translate(0 244) translate(156 104)"/>
    <path fill="currentColor" d="M103.918 99.756v66.777c21.264 0 38.531 17.632 38.531 39.347 0 7.185-1.918 13.877-5.116 19.593l56.757 33.469c9.593-16.98 13.91-33.47 13.91-53.062-.16-58.613-46.685-106.124-104.082-106.124z" transform="translate(-1300 -1236) translate(1300 992) translate(0 244) translate(156 104)"/>
    <path fill="currentColor" d="M137.173 225.473c-6.715 11.754-19.026 19.59-33.255 19.59-14.23 0-26.7-7.836-33.255-19.59l-56.757 33.469c9.593 16.98 21.424 29.06 38.051 38.858 49.723 29.224 113.195 11.918 141.974-38.858l-56.758-33.47z" transform="translate(-1300 -1236) translate(1300 992) translate(0 244) translate(156 104)"/>
</svg>
