<svg xmlns="http://www.w3.org/2000/svg" width="24" height="24" viewBox="0 0 24 24">
    <path fill="currentColor" d="M6.288 15.808l.041.005c.026.007.048.02.067.04.019.02.031.042.038.068l.004.04v.526l-.006.059c-.008.037-.024.07-.048.097l-.935.836.042.012.175.031c.281.063.51.174.688.335.213.193.32.47.32.832 0 .264-.078.495-.233.694-.154.199-.368.351-.64.458-.27.106-.58.159-.925.159-.394 0-.725-.06-.992-.18-.268-.12-.465-.269-.591-.446-.127-.177-.194-.354-.203-.531 0-.036.014-.065.04-.089.017-.016.037-.026.059-.031l.034-.004h.833l.045.003c.027.004.05.012.07.023.027.018.054.047.078.086.076.193.287.29.633.29.197 0 .35-.046.458-.136.11-.091.163-.213.163-.367 0-.262-.159-.408-.476-.437l-.127-.005h-.675l-.042-.005c-.027-.007-.05-.02-.07-.04-.02-.02-.034-.042-.04-.068l-.005-.04v-.35l.006-.063c.009-.039.026-.072.051-.1l1.016-.816H3.477l-.039-.005c-.025-.007-.047-.02-.067-.04-.02-.02-.034-.041-.04-.065l-.005-.038v-.584l.004-.041c.007-.026.02-.049.038-.069.019-.02.041-.032.067-.039l.042-.005h2.81zm13.707 1.18c.555 0 1.005.441 1.005.985 0 .543-.45.984-1.005.984H9.94c-.555 0-1.005-.44-1.005-.984s.45-.984 1.005-.984h10.054zM4.882 9.829c.338 0 .63.052.875.159.245.106.431.256.558.448.126.193.19.418.19.673 0 .284-.09.54-.269.768-.149.19-.363.394-.642.612l-.175.132-.5.49h1.525l.042.005c.026.006.048.018.067.036.019.019.031.04.037.066l.005.04v.632l-.005.038c-.006.024-.018.046-.037.066-.019.02-.041.032-.067.039l-.042.005H3.302l-.039-.005c-.025-.007-.047-.02-.067-.04-.02-.02-.033-.04-.04-.065l-.005-.038v-.443l.006-.068c.012-.066.042-.125.09-.177l.616-.587.35-.262.41-.315.105-.084c.195-.158.344-.3.447-.428.102-.128.153-.25.153-.363 0-.292-.148-.437-.446-.437-.157 0-.277.046-.362.138-.084.093-.14.208-.169.346-.02.072-.067.116-.143.13l-.062.006H3.35l-.035-.005c-.022-.005-.041-.017-.059-.034-.026-.025-.039-.054-.039-.085.008-.26.082-.495.22-.706.14-.21.333-.378.582-.502.25-.124.537-.186.863-.186zm15.113 1.257c.555 0 1.005.44 1.005.984 0 .543-.45.984-1.005.984H9.94c-.555 0-1.005-.44-1.005-.984s.45-.984 1.005-.984h10.054zM5.4 4l.042.005c.026.006.05.018.07.036.02.019.033.04.04.066l.005.04v3.838l-.005.04c-.007.026-.02.048-.04.067-.02.018-.044.03-.07.036l-.042.005h-.827l-.038-.005c-.025-.007-.047-.02-.067-.04-.02-.02-.034-.041-.04-.065l-.005-.038V5.222l-.809.608-.046.022-.044.008c-.032 0-.062-.01-.089-.032l-.038-.04-.374-.471-.018-.043L3 5.228c0-.037.01-.068.03-.094l.036-.036 1.4-1.057.042-.023.046-.013.05-.005h.797zm14.594 1.18c.555 0 1.005.441 1.005.985 0 .543-.45.984-1.005.984H9.94c-.555 0-1.005-.44-1.005-.984s.45-.984 1.005-.984h10.054z"/>
</svg>
