<svg xmlns="http://www.w3.org/2000/svg" width="24" height="24" viewBox="0 0 24 24">
  <path fill="currentColor" d="M4.727 21c-1.452 0-2.64-1.124-2.722-2.541L2 18.3v-9c0-1.438 1.135-2.613 2.567-2.695l.16-.005h2.728v-.9c0-1.438 1.135-2.613 2.567-2.695l.16-.005h3.636c1.453 0 2.64 1.124 2.723 2.541l.004.159v.9h2.728c1.452 0 2.64 1.124 2.722 2.541L22 9.3v9c0 1.438-1.135 2.613-2.567 2.695l-.16.005H4.727zM7.455 8.4H4.727c-.466 0-.85.347-.903.795l-.006.105v9c0 .462.351.842.803.894l.106.006h2.728V8.4zm7.272 0H9.273v10.8h5.454V8.4zm4.546 0h-2.728v10.8h2.728c.466 0 .85-.347.903-.795l.006-.105v-9c0-.462-.351-.842-.803-.894l-.106-.006zm-5.455-3.6h-3.636c-.466 0-.85.347-.903.795l-.006.105v.9h5.454v-.9c0-.462-.35-.842-.803-.894l-.106-.006z"/>
</svg>
