<svg xmlns="http://www.w3.org/2000/svg" width="24" height="24" viewBox="0 0 24 24">
   <path fill="currentColor" d="M21 19.512c.552 0 1 .445 1 .993 0 .51-.386.93-.883.987L21 21.5h-9c-.552 0-1-.445-1-.994 0-.51.386-.929.883-.986l.117-.007h9zM15.793 3.408c.788-.783 1.938-1.089 3.015-.802 1.077.287 1.918 1.122 2.207 2.193.27 1.003.017 2.07-.666 2.844l-.142.151-12.5 12.42c-.096.096-.21.17-.336.22l-.128.042-4 .993c-.696.173-1.33-.413-1.234-1.096l.02-.108 1-3.975c.034-.13.093-.253.175-.36l.089-.102 12.5-12.42zm2.497 1.117c-.344-.091-.708-.015-.984.201l-.099.088L4.903 17.039l-.529 2.1 2.114-.525L18.793 6.389c.22-.219.336-.515.328-.817l-.011-.13-.027-.129c-.104-.384-.406-.685-.793-.788z" /> 
</svg>
