<svg xmlns="http://www.w3.org/2000/svg" width="96" height="96" viewBox="0 0 96 96">
    <g fill="none" fill-rule="evenodd">
        <g>
            <g>
                <g>
                    <path d="M0 0H96V96H0z" transform="translate(-80.000000, -253.000000) translate(56.000000, 229.000000) translate(24.000000, 24.000000)"/>
                    <path fill="#E8EEF2" fill-rule="nonzero" d="M42.667 53.333H96C95.778 23.866 72 0 42.667 0v53.333z" transform="translate(-80.000000, -253.000000) translate(56.000000, 229.000000) translate(24.000000, 24.000000)"/>
                    <path fill="#B0BFC7" fill-rule="nonzero" d="M48.017 7.333c10.046 0 18.217 8.148 18.217 18.162 0 9.339-7.132 17.125-16.346 18.066l-.286.026v9.476l9.8 6.306.004-.005c3.312-4.24 8.33-6.837 13.79-7.011l.293-.007.294-.003c1.93 0 3.83.3 5.65.891.833.271 1.288 1.162 1.016 1.991-.27.83-1.166 1.283-1.999 1.013-1.502-.488-3.072-.735-4.667-.735-8.296 0-15.046 6.73-15.046 15.002 0 3.203 1.016 6.255 2.86 8.79l.181.243.093.12.13-.23c1.432-2.51 3.322-4.512 5.466-6.056l.285-.203-.077-.102c-.85-1.161-1.354-2.544-1.445-3.98l-.01-.239-.004-.228c0-4.16 3.394-7.544 7.567-7.544s7.567 3.384 7.567 7.544c0 1.521-.466 3.004-1.321 4.252l-.138.195-.078.102c2.17 1.508 4.091 3.468 5.563 5.934l.19.325.128.23.094-.12c1.836-2.42 2.902-5.336 3.028-8.415l.01-.309.003-.31c0-4.833-2.36-9.4-6.31-12.215-.712-.507-.876-1.493-.368-2.203.51-.71 1.5-.875 2.213-.367C89.146 59.126 92 64.653 92 70.505c0 10.014-8.172 18.162-18.217 18.162-10.045 0-18.217-8.148-18.217-18.162 0-2.976.724-5.852 2.087-8.433l.026-.05-9.662-6.219-9.702 6.244.027.05c1.26 2.38 1.974 5.012 2.078 7.742l.01.357.004.343c0 4.56-1.703 8.921-4.794 12.278-3.072 3.337-7.246 5.4-11.754 5.808-.049.005-.097.007-.145.007-.817 0-1.503-.622-1.578-1.437-.079-.868.564-1.637 1.436-1.716 3.007-.273 5.847-1.443 8.176-3.358l.064-.054-.046-.098c-1.506-3.121-3.781-5.359-6.306-6.841l-.245-.141-.247-.137c-.99-.499-1.112-1.94-.266-2.608l.088-.064c1.146-.824 1.83-2.155 1.83-3.559 0-2.417-1.973-4.384-4.396-4.384s-4.396 1.967-4.396 4.384c0 1.348.63 2.629 1.688 3.453l.135.1c.918.62.857 2.065-.067 2.622l-.096.052c-2.739 1.486-5.222 3.82-6.823 7.161l-.047.1.07.059c1.653 1.342 3.569 2.323 5.606 2.868l.323.082.309.072c.855.188 1.394 1.032 1.205 1.883-.189.851-1.035 1.39-1.89 1.202-3.987-.88-7.607-3.112-10.195-6.288C5.446 78.763 4 74.7 4 70.54c0-10.014 8.171-18.162 18.217-18.162 5.585 0 10.758 2.536 14.191 6.788l.183.23 9.84-6.333v-9.476c-9.165-.791-16.339-8.346-16.622-17.527l-.006-.279-.003-.285c0-4.046 1.307-7.876 3.777-11.073.534-.692 1.53-.821 2.224-.288.694.532.823 1.524.289 2.214-2.04 2.642-3.118 5.803-3.118 9.147 0 3.203 1.015 6.255 2.86 8.79l.18.243.093.12.13-.23c1.433-2.51 3.322-4.513 5.466-6.057l.286-.202-.077-.102c-.85-1.161-1.355-2.544-1.445-3.98l-.011-.24-.004-.228c0-4.159 3.394-7.543 7.567-7.543s7.567 3.384 7.567 7.543c0 1.522-.466 3.005-1.32 4.253l-.139.195-.078.102c2.17 1.508 4.091 3.468 5.563 5.934l.19.325.129.23.093-.12c1.837-2.42 2.902-5.335 3.028-8.415l.01-.309.003-.31c0-8.271-6.75-15.002-15.046-15.002-3.076 0-6.033.92-8.552 2.658-.72.497-1.709.318-2.207-.4-.498-.717-.319-1.7.4-2.196 3.052-2.107 6.635-3.22 10.36-3.22zm25.766 56.902c-2.423 0-4.396 1.967-4.396 4.384 0 1.348.63 2.629 1.688 3.453l.135.1c.918.62.857 2.065-.067 2.622l-.096.052c-2.725 1.478-5.2 3.797-6.802 7.115l-.046.098.051.043c2.594 2.124 5.82 3.335 9.232 3.402l.301.003c3.523 0 6.863-1.218 9.533-3.405l.05-.043-.045-.098c-1.554-3.217-3.927-5.495-6.548-6.974l-.246-.137c-1.023-.516-1.12-2.037-.178-2.672 1.146-.824 1.83-2.155 1.83-3.559 0-2.417-1.973-4.384-4.396-4.384zm-51.566-8.698c-8.296 0-15.046 6.73-15.046 15.002 0 3.234 1.058 6.4 2.988 8.974l.152.2.13-.237c1.438-2.536 3.34-4.555 5.502-6.11l.278-.197-.077-.102c-.898-1.226-1.41-2.698-1.456-4.219l-.004-.228c0-4.16 3.394-7.544 7.567-7.544 4.174 0 7.568 3.384 7.568 7.544 0 1.6-.517 3.16-1.46 4.447l-.078.102c2.266 1.574 4.258 3.64 5.753 6.259l.128.228.092-.12c1.891-2.51 2.942-5.54 3.005-8.691l.003-.306c0-8.272-6.75-15.002-15.045-15.002zm25.8-36.312c-2.423 0-4.396 1.967-4.396 4.384 0 1.348.631 2.629 1.689 3.453l.134.1c.918.62.857 2.065-.067 2.622l-.096.052c-2.726 1.479-5.2 3.797-6.801 7.115l-.047.098.052.043c2.594 2.124 5.82 3.335 9.231 3.402l.302.003c3.523 0 6.862-1.218 9.532-3.405l.052-.043-.046-.098c-1.554-3.217-3.928-5.495-6.548-6.974l-.247-.137c-1.023-.516-1.12-2.037-.178-2.672 1.146-.824 1.83-2.155 1.83-3.559 0-2.417-1.972-4.384-4.396-4.384z" transform="translate(-80.000000, -253.000000) translate(56.000000, 229.000000) translate(24.000000, 24.000000)"/>
                </g>
            </g>
        </g>
    </g>
</svg>
