<svg xmlns="http://www.w3.org/2000/svg" width="24" height="24" viewBox="0 0 24 24">
   <path fill="currentColor" d="M21 13c.513 0 .936.386.993.883L22 14v7c0 .513-.386.936-.883.993L21 22h-7c-.513 0-.936-.386-.993-.883L13 21v-7c0-.513.386-.936.883-.993L14 13h7zm-11 0c.513 0 .936.386.993.883L11 14v7c0 .513-.386.936-.883.993L10 22H3c-.513 0-.936-.386-.993-.883L2 21v-7c0-.513.386-.936.883-.993L3 13h7zm10 2h-5v5h5v-5zM9 15H4v5h5v-5zm1-13c.513 0 .936.386.993.883L11 3v7c0 .513-.386.936-.883.993L10 11H3c-.513 0-.936-.386-.993-.883L2 10V3c0-.513.386-.936.883-.993L3 2h7zm11 0c.513 0 .936.386.993.883L22 3v7c0 .513-.386.936-.883.993L21 11h-7c-.513 0-.936-.386-.993-.883L13 10V3c0-.513.386-.936.883-.993L14 2h7zM9 4H4v5h5V4zm11 0h-5v5h5V4z"/>
</svg>
