<svg xmlns="http://www.w3.org/2000/svg" width="24" height="24" viewBox="0 0 24 24">
   <path fill="currentColor" d="M17.455 2c.466 0 .85.35.903.803l.006.106v5.455h.909c1.452 0 2.64 1.135 2.722 2.567l.005.16v4.545c0 1.453-1.135 2.64-2.567 2.723l-.16.005h-.91v2.727c0 .466-.35.85-.802.903l-.106.006H6.545c-.466 0-.85-.35-.903-.803l-.006-.106v-2.727h-.909c-1.452 0-2.64-1.136-2.722-2.567L2 15.637V11.09c0-1.453 1.135-2.64 2.567-2.723l.16-.004h.91V2.909c0-.466.35-.85.802-.903L6.545 2h10.91zm-.91 12.727h-9.09v5.455h9.09v-5.455zm2.728-4.545H4.727c-.466 0-.85.35-.903.803l-.006.106v4.545c0 .467.351.85.803.903l.106.006h.91v-2.727c0-.466.35-.85.802-.903l.106-.006h10.91c.466 0 .85.351.903.803l.006.106v2.727h.909c.466 0 .85-.35.903-.803l.006-.106v-4.545c0-.466-.351-.85-.803-.903l-.106-.006zm-2.728-6.364h-9.09v4.546h9.09V3.818z" />
</svg>
