<svg xmlns="http://www.w3.org/2000/svg" width="16" height="16" viewBox="0 0 16 16">
   <path fill="currentColor" d="M9.185 1.333c.987 0 1.79.777 1.849 1.753l.003.114v.533h2.296c.369 0 .667.299.667.667 0 .342-.257.624-.589.662l-.078.005-.518-.001V12.8c0 .991-.767 1.804-1.739 1.863l-.113.004H5.037c-.987 0-1.79-.777-1.848-1.753l-.004-.114V5.066h-.518C2.298 5.067 2 4.769 2 4.4c0-.342.257-.624.589-.662l.078-.005h2.296V3.2c0-.991.767-1.804 1.739-1.863l.113-.004h2.37zm2.296 3.733H4.518V12.8c0 .272.197.493.45.528l.069.005h5.926c.26 0 .48-.199.514-.46l.004-.073V5.066zM6.815 6.733c.342 0 .623.258.662.59l.004.077V11c0 .368-.298.667-.666.667-.342 0-.624-.258-.662-.59L6.148 11V7.4c0-.368.299-.667.667-.667zm2.37 0c.342 0 .624.258.662.59l.005.077V11c0 .368-.299.667-.667.667-.342 0-.623-.258-.662-.59L8.519 11V7.4c0-.368.298-.667.666-.667zm0-4.066h-2.37c-.261 0-.48.199-.514.46l-.005.073v.533h3.407V3.2c0-.272-.196-.493-.448-.528l-.07-.005z"/>
</svg>
