<svg width="16" height="16" viewBox="0 0 16 16" xmlns="http://www.w3.org/2000/svg">
    <path fill="currentColor" d="M13.333 9.704a.667.667 0 0 1 .078 1.329l-.078.004h-1.777a.519.519 0 0 0-.514.448l-.005.07v1.778a.667.667 0 0 1-1.329.078l-.004-.078v-1.777c0-.985.769-1.79 1.739-1.849l.113-.003h1.777zm-8.889 0c.985 0 1.79.769 1.849 1.739l.003.113v1.777a.667.667 0 0 1-1.329.078l-.004-.078v-1.777a.519.519 0 0 0-.448-.514l-.07-.005H2.666a.667.667 0 0 1-.078-1.329l.078-.004h1.777zM5.63 2c.342 0 .623.257.662.589l.004.078v1.777c0 .985-.769 1.79-1.739 1.849l-.113.003H2.667a.667.667 0 0 1-.078-1.329l.078-.004h1.777c.263 0 .48-.195.514-.448l.005-.07V2.666c0-.369.298-.667.667-.667zm4.74 0c.342 0 .624.257.663.589l.004.078v1.777c0 .263.195.48.448.514l.07.005h1.778a.667.667 0 0 1 .078 1.329l-.078.004h-1.777c-.985 0-1.79-.769-1.849-1.739l-.003-.113V2.667c0-.369.298-.667.666-.667z"/>
</svg>
