<svg xmlns="http://www.w3.org/2000/svg" width="24" height="24" viewBox="0 0 24 24">
    <path fill="currentColor" d="M9.3 3c.332 0 .643.165.829.44l1.501 2.226h7.57c1.486 0 2.707 1.151 2.795 2.609l.005.17v9.777C22 19.76 20.744 21 19.2 21H4.8C3.256 21 2 19.76 2 18.222V5.778C2 4.24 3.256 3 4.8 3zm-.531 2H4.8c-.445 0-.8.351-.8.778v12.444c0 .427.355.778.8.778h14.4c.445 0 .8-.351.8-.778V8.444c0-.426-.355-.777-.8-.777h-8.1c-.332 0-.643-.165-.829-.44L8.77 5zm4.153 4.14l.053.055 2.858 3.334c.02.023.038.048.055.074l.04.074.031.075.02.07.017.1L16 13l-.002.05-.01.084-.016.074-.026.074-.03.065-.036.062-.047.062-2.858 3.334c-.223.26-.584.26-.808 0-.206-.24-.221-.619-.047-.88l.047-.063 1.882-2.195H8.57C8.256 13.667 8 13.368 8 13c0-.342.22-.624.505-.662l.066-.005h5.478l-1.882-2.195c-.206-.24-.221-.618-.047-.88l.047-.063c.206-.24.53-.259.755-.055z"/>
</svg>
