<svg width="16" height="16" xmlns="http://www.w3.org/2000/svg">
    <path fill="currentColor" d="M14.602 10.76a.606.606 0 0 1-.21.777l-.06.035-6.061 3.03a.606.606 0 0 1-.467.032l-.075-.032-6.06-3.03a.606.606 0 0 1 .476-1.112l.065.028L8 13.382l5.79-2.894c.299-.15.663-.028.812.271zm0-3.031a.606.606 0 0 1-.21.778l-.06.035-6.061 3.03a.606.606 0 0 1-.467.032l-.075-.032-6.06-3.03a.606.606 0 0 1 .476-1.112l.065.028L8 10.352l5.79-2.894c.299-.15.663-.029.812.27zM7.73 1.397a.606.606 0 0 1 .467-.031l.075.031 6.06 3.03a.606.606 0 0 1 .067 1.046l-.067.039-6.06 3.03a.606.606 0 0 1-.467.031l-.075-.031-6.06-3.03a.606.606 0 0 1-.067-1.046l.066-.038 6.06-3.03zm.27 1.22L3.295 4.97 8 7.322l4.705-2.352L8 2.617z"/>
</svg>
