<svg xmlns="http://www.w3.org/2000/svg" width="25" height="24" viewBox="0 0 25 24">
    <path fill="currentColor" d="M14.874 2c1.503 0 2.76 1.075 3.043 2.496 1.048.104 1.971.425 2.606.703.85.372 1.414 1.187 1.472 2.106l.005.163v3.166c-.002 1.007-.608 1.907-1.543 2.294-.417.173-.849.313-1.282.417-.42.101-.842-.157-.942-.577-.101-.42.157-.841.577-.942.354-.085.707-.2 1.049-.341.31-.13.53-.42.571-.743l.008-.11V7.467c0-.364-.212-.691-.542-.836-.427-.187-1.01-.398-1.669-.515l-.25-.04v1.237h.234c.431 0 .781.35.781.782 0 .4-.301.73-.69.776l-.091.005h-1.953c-.432 0-.781-.35-.781-.781 0-.4.301-.731.69-.776l.09-.006h.157V6.086c-.73.11-1.375.344-1.832.55-.3.134-.505.415-.544.732l-.007.107v3.13c0 .375.23.716.573.848.303.117.612.218.917.299.102.027.196.074.279.138l.078.07.039.04c.12.121.195.278.217.445l.007.102v6.397l1.166 1.165.826-.842-.676-.694c-.275-.282-.295-.718-.06-1.022l.07-.079.69-.683-.689-.677c-.308-.302-.312-.797-.01-1.105.28-.284.722-.31 1.03-.074l.075.064 1.254 1.232c.15.147.234.347.234.556 0 .175-.057.343-.163.48l-.069.077-.702.695.669.686c.272.279.294.71.066 1.013l-.068.08-1.914 1.95c-.121.124-.28.203-.45.226l-.103.008c-.176 0-.343-.057-.479-.161l-.077-.068-1.953-1.95c-.123-.122-.2-.28-.223-.45l-.007-.103v-6.166l-.208-.07-.207-.076-.63.628c-.475.472-1.103.722-1.745.722-.322 0-.647-.063-.957-.192-.418-.174-.855-.397-1.232-.628-.368-.226-.483-.707-.257-1.074.226-.368.707-.483 1.074-.258.418.257.815.434 1.015.517.31.13.658.08.916-.121l.083-.073.473-.471c-.242-.355-.394-.773-.427-1.213l-.007-.19v-.728c-.116-.024-.228-.074-.326-.15l-.07-.063-1.407-1.407c-.305-.305-.305-.8 0-1.104.282-.282.725-.304 1.032-.065l.073.065.698.697v-.374c0-.382.09-.75.251-1.08-.473-.34-1.014-.629-1.611-.857-.298-.114-.633-.063-.882.127l-.089.078L7.93 7.94c-.262.261-.339.661-.19.996.124.277.26.548.407.805.088.153.12.33.094.502l-.03.13c-.027.095-.073.184-.133.261l-.065.074-4.45 4.452v1.723h1.246v-1.055c0-.4.301-.73.69-.776l.091-.005h1.02v-.938c0-.431.35-.78.78-.78.401 0 .731.3.777.69l.005.09v1.719c0 .4-.302.73-.69.776l-.091.005H6.37v1.055c0 .4-.301.73-.69.776l-.09.005H2.78c-.4 0-.73-.301-.776-.69L2 17.664v-2.827c0-.173.057-.34.16-.475l.069-.077 4.285-4.287c-.07-.14-.137-.283-.201-.427-.388-.872-.225-1.902.4-2.616l.115-.122 2.208-2.198c.689-.686 1.722-.905 2.63-.558l.227.09c.381-1.202 1.477-2.09 2.786-2.162L14.874 2zm.128 1.568l-.145-.006c-.79 0-1.44.591-1.533 1.352.173.112.34.23.5.353l.118-.057c.58-.26 1.407-.558 2.359-.686-.214-.525-.71-.908-1.299-.956z"/>
</svg>
