<svg xmlns="http://www.w3.org/2000/svg" width="24" height="24" viewBox="0 0 24 24">
   <path fill="currentColor" d="M14.006 19.398c.43.252.577.809.327 1.243-.483.841-1.372 1.359-2.335 1.359-.962 0-1.852-.518-2.335-1.359-.25-.434-.103-.99.327-1.243.4-.234.902-.123 1.172.242l.058.089c.16.28.457.453.778.453.285 0 .551-.137.72-.364l.116-.178c.27-.365.773-.476 1.172-.242zM11.998 2c3.479 0 6.299 2.85 6.299 6.365 0 2.636.47 4.617 1.24 6.043.257.477.528.85.791 1.13l.067.07.11.107.07.061.02.015c.712.48.418 1.574-.394 1.66l-.104.006H3.9c-.855 0-1.211-1.075-.583-1.603l.104-.078.071-.061.142-.14.034-.036c.264-.281.534-.654.791-1.131.731-1.354 1.193-3.21 1.237-5.653l.003-.39C5.7 4.85 8.52 2 12 2zm0 1.818c-2.42 0-4.393 1.93-4.495 4.35l-.004.197c0 2.932-.542 5.213-1.46 6.913l-.124.224-.083.137h12.33l-.08-.137-.125-.224c-.874-1.62-1.407-3.765-1.456-6.499l-.004-.414-.004-.198c-.102-2.419-2.075-4.349-4.495-4.349z"/>
</svg>
