<svg xmlns="http://www.w3.org/2000/svg" width="40" height="40" viewBox="0 0 40 40">
   <path fill="currentColor" d="M22.963 3.333c.149 0 .292.023.428.064l.027.01c.035.01.068.023.1.037l.038.016c.034.015.066.03.098.048l.019.01c.032.018.064.038.095.058.017.012.034.023.05.036.02.013.037.027.055.04.048.039.094.08.138.125l-.085-.08c.02.018.04.035.058.054l.027.026 8.888 9.091.018.018.049.055.046.057c.016.02.032.04.046.062.011.015.021.03.031.047.017.024.032.05.047.077l.023.042.005.01c.083.16.138.338.16.527v.01c.006.055.01.11.01.166v18.182c0 2.51-1.99 4.546-4.445 4.546H11.11c-2.454 0-4.444-2.035-4.444-4.546V7.88c0-2.51 1.99-4.546 4.444-4.546h11.852zm-1.482 3.03H11.11c-.818 0-1.481.679-1.481 1.516V32.12c0 .837.663 1.515 1.481 1.515H28.89c.818 0 1.481-.678 1.481-1.515V15.454h-7.407c-.76 0-1.386-.584-1.472-1.338l-.01-.177V6.363zM20 18.485c.76 0 1.386.585 1.472 1.338l.01.177-.001 3.03h2.963c.819 0 1.482.679 1.482 1.515 0 .777-.572 1.418-1.309 1.505l-.173.01h-2.963v3.03c0 .838-.663 1.516-1.481 1.516-.76 0-1.386-.585-1.472-1.338l-.01-.177v-3.03h-2.962c-.819 0-1.482-.679-1.482-1.516 0-.777.572-1.417 1.309-1.505l.173-.01h2.962V20c0-.837.664-1.515 1.482-1.515zm4.444-9.979v3.918h3.83l-3.83-3.918z" />
</svg>
