<svg xmlns="http://www.w3.org/2000/svg" viewBox="0 0 24 24">
    <path fill="currentColor" d="M12,2 C17.5228475,2 22,6.4771525 22,12 C22,17.5228475 17.5228475,22 12,22 C6.4771525,22 2,17.5228475 2,12 C2,6.4771525 6.4771525,2 12,2 Z M12,3.81818182 C7.48130659,3.81818182 3.81818182,7.48130659 3.81818182,12 C3.81818182,16.5186934 7.48130659,20.1818182 12,20.1818182 C16.5186934,20.1818182 20.1818182,16.5186934 20.1818182,12 C20.1818182,7.48130659 16.5186934,3.81818182 12,3.81818182 Z M12,5.63636364 C12.4662144,5.63636364 12.8504611,5.98730926 12.9029748,6.43943534 L12.9090909,6.54545455 L12.9090909,11.4372727 L16.0429215,13.0050662 C16.4599163,13.2135636 16.6466493,13.6992992 16.4914221,14.127178 L16.4494793,14.2247396 C16.2409818,14.6417345 15.7552462,14.8284675 15.3273675,14.6732403 L15.2298058,14.6312974 L11.5934422,12.8131156 C11.3196773,12.6762332 11.1355424,12.4123053 11.0980033,12.1135048 L11.0909091,12 L11.0909091,6.54545455 C11.0909091,6.0433775 11.497923,5.63636364 12,5.63636364 Z" />
</svg>