<svg xmlns="http://www.w3.org/2000/svg" width="24" height="24" viewBox="0 0 24 24">
   
    <path fill="currentColor" d="M12 4.5c2.817 0 5.282 1.36 7.379 3.597.617.658 1.165 1.355 1.643 2.058l.233.351.198.315.242.406.124.222.093.178c.117.235.117.511 0 .746l-.043.083-.108.201-.139.242-.169.28-.198.315c-.53.82-1.156 1.641-1.876 2.41C17.282 18.14 14.817 19.5 12 19.5c-2.817 0-5.282-1.36-7.379-3.597-.617-.658-1.165-1.355-1.643-2.058l-.233-.351-.198-.315-.242-.406-.124-.222-.093-.178c-.117-.235-.117-.511 0-.746l.043-.083.108-.201.139-.242.169-.28.198-.315c.53-.82 1.156-1.641 1.876-2.41C6.718 5.86 9.183 4.5 12 4.5zm0 1.667c-2.288 0-4.353 1.14-6.163 3.07-.647.69-1.213 1.432-1.692 2.173l-.12.19-.113.183-.128.217.128.217.112.182.121.19c.48.742 1.045 1.484 1.692 2.174 1.81 1.93 3.875 3.07 6.163 3.07 2.288 0 4.353-1.14 6.163-3.07.647-.69 1.213-1.432 1.692-2.173l.12-.19.113-.183.127-.217-.127-.217-.112-.182-.121-.19c-.48-.742-1.045-1.484-1.692-2.174-1.81-1.93-3.875-3.07-6.163-3.07zm0 2.5c1.84 0 3.333 1.492 3.333 3.333 0 1.84-1.492 3.333-3.333 3.333-1.84 0-3.333-1.492-3.333-3.333 0-1.84 1.492-3.333 3.333-3.333zm0 1.666c-.92 0-1.667.747-1.667 1.667s.747 1.667 1.667 1.667 1.667-.747 1.667-1.667-.747-1.667-1.667-1.667z"/>
             
</svg>
