<svg width="16" height="16" viewBox="0 0 16 16" xmlns="http://www.w3.org/2000/svg">
    <g fill="none" fill-rule="evenodd">
        <path d="M0 0h16v16H0z"/>
        <path d="M11.6 1.333c1.325 0 2.4 1.086 2.4 2.425 0 1.338-1.075 2.424-2.4 2.424a2.38 2.38 0 0 1-1.705-.718L6.71 7.34a2.449 2.449 0 0 1 0 1.317l3.187 1.876a2.38 2.38 0 0 1 1.703-.716c1.325 0 2.4 1.086 2.4 2.424 0 1.34-1.075 2.425-2.4 2.425s-2.4-1.086-2.4-2.425c0-.229.031-.45.09-.66L6.104 9.706a2.38 2.38 0 0 1-1.704.717C3.075 10.424 2 9.34 2 8s1.075-2.424 2.4-2.424c.667 0 1.27.275 1.705.718L9.29 4.416a2.45 2.45 0 0 1-.09-.658c0-1.34 1.075-2.425 2.4-2.425zm0 9.697c-.42 0-.79.219-1.005.55a.284.284 0 0 1-.025.052l-.033.048c-.088.168-.137.36-.137.562 0 .67.537 1.213 1.2 1.213.663 0 1.2-.543 1.2-1.213 0-.669-.537-1.212-1.2-1.212zM4.4 6.788c-.663 0-1.2.543-1.2 1.212 0 .67.537 1.212 1.2 1.212a1.197 1.197 0 0 0 1.036-.602l.006-.008a1.216 1.216 0 0 0-.006-1.212l-.005-.01A1.197 1.197 0 0 0 4.4 6.787zm7.2-4.243c-.663 0-1.2.543-1.2 1.213a1.216 1.216 0 0 0 .164.61l.004.008c.21.356.593.594 1.032.594.663 0 1.2-.543 1.2-1.212 0-.67-.537-1.213-1.2-1.213z" fill="currentColor" fill-rule="nonzero"/>
    </g>
</svg>
