<svg xmlns="http://www.w3.org/2000/svg">
    <path fill="currentColor" d="M21.904 16.139a.91.91 0 0 1-.315 1.166l-.092.053-9.09 4.546a.91.91 0 0 1-.702.047l-.112-.047-9.09-4.546a.91.91 0 0 1 .715-1.668l.098.042L12 20.073l8.684-4.34a.91.91 0 0 1 1.22.406zm0-4.546a.91.91 0 0 1-.315 1.167l-.092.053-9.09 4.545a.91.91 0 0 1-.702.047l-.112-.047-9.09-4.545a.91.91 0 0 1 .715-1.668l.098.042L12 15.527l8.684-4.34a.91.91 0 0 1 1.22.406zm-10.31-9.497a.91.91 0 0 1 .7-.047l.112.047 9.091 4.545a.91.91 0 0 1 .1 1.569l-.1.058-9.09 4.545a.91.91 0 0 1-.702.047l-.112-.047-9.09-4.545a.91.91 0 0 1-.1-1.569l.1-.058 9.09-4.545zM12 3.926 4.942 7.453 12 10.983l7.057-3.529L12 3.925z"/>
</svg>
