<svg xmlns="http://www.w3.org/2000/svg" width="24" height="24" viewBox="0 0 24 24">
    <path fill="currentColor" d="M12 2c5.523 0 10 4.477 10 10s-4.477 10-10 10S2 17.523 2 12 6.477 2 12 2zm0 1.818c-4.519 0-8.182 3.663-8.182 8.182S7.481 20.182 12 20.182s8.182-3.663 8.182-8.182S16.519 3.818 12 3.818zm.01 11.818c.501 0 .908.407.908.91 0 .466-.35.85-.803.902l-.115.007c-.502 0-.91-.407-.91-.91 0-.466.352-.85.804-.903l.115-.006zm.532-9.042c1.748.3 3.024 1.816 3.022 3.588 0 1.163-.69 2.082-1.769 2.802-.59.393-1.17.65-1.58.788-.477.158-.991-.1-1.15-.575-.148-.443.064-.918.476-1.111l.268-.104.175-.074c.276-.123.551-.27.803-.437.625-.417.958-.862.958-1.29.002-.887-.637-1.645-1.51-1.795-.826-.142-1.634.298-1.969 1.052l-.054.136c-.166.474-.686.723-1.16.556-.473-.166-.722-.685-.555-1.159.588-1.673 2.297-2.677 4.045-2.377z"/>
</svg>
