<svg xmlns="http://www.w3.org/2000/svg" width="24" height="24" viewBox="0 0 24 24">
    <path fill="currentColor" d="M13.778 2c.06 0 .12.006.177.018.017.004.033.007.049.012l.024.007c.066.02.128.046.186.08l.018.01c.027.017.052.034.076.052.034.027.067.056.098.087l-.067-.062c.018.015.036.031.053.048l.014.014 5.334 5.455.02.02.038.045.032.043c.011.016.023.033.033.05.01.015.019.031.027.047.01.017.019.035.027.054l.02.048c.009.022.017.045.024.068l.01.039c.01.04.018.08.023.123l.006.106v10.909C20 20.779 18.806 22 17.333 22H6.667C5.194 22 4 20.779 4 19.273V4.727C4 3.221 5.194 2 6.667 2zm-.89 1.818H6.667c-.491 0-.89.407-.89.91v14.545c0 .502.399.909.89.909h10.666c.491 0 .89-.407.89-.91l-.001-10h-4.444c-.456 0-.832-.35-.883-.802l-.006-.106-.001-4.546zm2.668 11.818c.49 0 .888.407.888.91 0 .466-.343.85-.785.902l-.103.007H8.444c-.49 0-.888-.407-.888-.91 0-.466.343-.85.785-.903l.103-.006h7.112zm0-3.636c.49 0 .888.407.888.91 0 .465-.343.85-.785.902l-.103.006H8.444c-.49 0-.888-.407-.888-.909 0-.466.343-.85.785-.903L8.444 12h7.112zm-5.334-3.636c.491 0 .89.407.89.909 0 .466-.344.85-.786.903l-.104.006H8.444c-.49 0-.888-.407-.888-.91 0-.465.343-.85.785-.902l.103-.006h1.778zm4.444-3.26v2.35h2.298l-2.298-2.35z" />   
</svg>
