<svg xmlns="http://www.w3.org/2000/svg" width="40" height="40" viewBox="0 0 40 40">
     <path fill="currentColor" d="M32 20c.684 0 1.247.536 1.324 1.227l.01.162v2.778c0 3.734-2.83 6.78-6.378 6.938l-.29.006H11.22l3.057 3.185c.48.5.518 1.288.111 1.833l-.11.13c-.482.502-1.238.54-1.76.116l-.126-.115-5.334-5.556-.014-.014c-.023-.026-.046-.052-.068-.08l.082.094c-.037-.038-.072-.079-.103-.12l-.057-.081-.023-.037c-.023-.037-.044-.077-.064-.117l-.018-.038c-.031-.069-.057-.14-.076-.215l-.014-.054c-.006-.026-.01-.053-.015-.08-.004-.018-.006-.037-.009-.056l-.007-.075-.004-.07v-.067c0-.022.001-.044.003-.065l-.003.093c0-.059.003-.117.01-.175l.009-.06.014-.075.014-.056c.007-.03.016-.06.026-.088l.013-.038c.01-.028.02-.055.032-.081l.029-.062.03-.056c.01-.02.021-.039.033-.058l.04-.062.03-.04.012-.017c.029-.037.06-.073.092-.108l.006-.006 5.334-5.555c.52-.543 1.364-.543 1.885 0 .48.5.518 1.288.111 1.833l-.11.13-3.058 3.184 15.448.001c2.13 0 3.871-1.734 3.993-3.922l.007-.244v-2.778c0-.767.597-1.389 1.333-1.389zM27.484 3.625l.125.115 5.334 5.556.022.023c.015.016.03.033.043.05l-.065-.073c.041.043.08.088.114.136l.028.038c.015.022.029.043.042.065l.04.071.033.066c.014.03.028.062.04.095l.006.016.013.036c.01.028.018.056.025.085l.014.054c.006.026.01.053.015.08.004.018.006.037.009.056l.007.075.004.07v.063c0 .03-.002.059-.004.088l.004-.112c0 .054-.003.107-.008.16l-.012.082-.012.064-.019.076-.014.048c-.008.027-.018.054-.028.08l-.021.054-.033.072-.03.055c-.01.02-.021.039-.033.058l-.045.068-.024.034-.009.01c-.03.04-.062.078-.095.114l-.007.007-5.334 5.555c-.52.543-1.364.543-1.885 0-.48-.5-.518-1.288-.111-1.833l.11-.13 3.057-3.186H13.333c-2.13 0-3.871 1.735-3.993 3.923l-.007.244v2.778C9.333 19.378 8.736 20 8 20c-.684 0-1.247-.536-1.324-1.227l-.01-.162v-2.778c0-3.734 2.83-6.78 6.378-6.938l.29-.006H28.78l-3.056-3.185c-.48-.5-.518-1.288-.111-1.833l.11-.13c.482-.502 1.238-.54 1.76-.116z" />            
</svg>
