<svg xmlns="http://www.w3.org/2000/svg" width="24" height="24" viewBox="0 0 24 24">
    <path fill="currentColor"  d="M15.8 2c.484 0 .884.347.943.795l.007.114v.908l1.9.001c1.511 0 2.747 1.125 2.844 2.548l.006.18v12.727c0 1.446-1.176 2.629-2.663 2.721L18.65 22H5.35c-1.511 0-2.747-1.125-2.844-2.548l-.006-.18V6.546c0-1.446 1.176-2.629 2.663-2.721l.187-.006h1.9v-.909c0-.502.425-.909.95-.909.484 0 .884.347.943.795l.007.114v.908h5.7V2.91c0-.502.425-.909.95-.909zm3.799 9.09h-15.2l.001 8.183c0 .463.362.846.83.902l.12.007h13.3c.484 0 .884-.347.943-.795l.007-.114-.001-8.182zM7.249 5.637H5.35c-.484 0-.884.347-.943.795l-.007.114v2.727h15.199l.001-2.727c0-.463-.362-.845-.83-.902l-.12-.007h-1.9v.91c0 .502-.425.909-.95.909-.484 0-.884-.347-.943-.796l-.007-.114v-.909h-5.7v.91c0 .502-.425.909-.95.909-.484 0-.884-.347-.943-.796l-.007-.114v-.909z" />                
</svg>
