<svg width="25" height="24" viewBox="0 0 25 24" xmlns="http://www.w3.org/2000/svg">
    <g fill="none" fill-rule="evenodd">
        <path d="M.5 0h24v24H.5z"/>
        <path d="M11.15 2.364a2.683 2.683 0 0 1 2.697-.002l6.303 3.626c.338.196.623.46.843.768a.905.905 0 0 1 .226.381c.182.367.28.778.281 1.202v7.248a2.722 2.722 0 0 1-1.353 2.353L13.85 21.56c-.29.168-.602.278-.921.33a.897.897 0 0 1-.857 0c-.32-.051-.63-.16-.919-.328L4.85 17.938a2.721 2.721 0 0 1-1.35-2.352V8.338c0-.423.099-.832.279-1.2a.906.906 0 0 1 .229-.383c.219-.308.504-.571.842-.767L7.78 4.3a.898.898 0 0 1 .495-.283zM5.299 8.826l.001 6.76c0 .323.172.621.447.78l5.853 3.367v-7.238l-6.301-3.67zm14.401 0-6.3 3.668v7.239l5.85-3.364a.906.906 0 0 0 .442-.663l.008-.12v-6.76zM8.495 5.976l-2.261 1.3 6.266 3.649 2.255-1.314-6.26-3.634zm4.455-2.043a.897.897 0 0 0-.903.002l-1.743 1.002 6.25 3.627 2.211-1.287z" fill="currentColor" fill-rule="nonzero"/>
    </g>
</svg>
