<svg xmlns="http://www.w3.org/2000/svg" width="24" height="24" viewBox="0 0 24 24">
   <path fill="currentColor" d="M3.344 2.175l.079.07 18.333 18.332c.325.326.325.853 0 1.179-.3.3-.773.323-1.1.07l-.079-.07-3.723-3.722c-1.441.927-3.119 1.438-4.854 1.466-2.817 0-5.282-1.36-7.379-3.597-.72-.768-1.346-1.588-1.876-2.41l-.198-.314-.17-.28-.138-.242-.108-.2-.043-.084c-.121-.243-.117-.528.011-.767.943-1.757 2.2-3.323 3.708-4.62L2.244 3.423c-.325-.326-.325-.853 0-1.179.3-.3.773-.323 1.1-.07zm.636 9.5l-.194.327.023.04c.066.114.138.233.215.357l.121.19c.48.742 1.045 1.484 1.692 2.174 1.81 1.93 3.875 3.07 6.15 3.07 1.29-.02 2.547-.371 3.655-1.011l-1.935-1.935c-.762.478-1.698.634-2.594.405-1.181-.302-2.103-1.224-2.405-2.405-.229-.896-.073-1.832.405-2.594L6.989 8.168c-1.184 1.002-2.2 2.186-3.01 3.508zM12 4.5c2.817 0 5.282 1.36 7.379 3.597.72.768 1.346 1.588 1.876 2.41l.198.314.17.28.138.242.108.2.043.084c.12.242.117.527-.01.766-.534.997-1.17 1.936-1.898 2.802-.296.352-.822.397-1.174.101-.352-.296-.397-.822-.101-1.174.467-.555.891-1.143 1.27-1.76l.215-.364-.023-.04c-.066-.114-.138-.233-.215-.357l-.121-.19c-.48-.742-1.045-1.484-1.692-2.174-1.81-1.93-3.875-3.07-6.165-3.07-.524-.002-1.047.058-1.558.178-.448.105-.897-.174-1.001-.622-.105-.448.173-.896.621-1.001.637-.15 1.288-.224 1.94-.222zm-1.677 7.975c.15.59.612 1.051 1.202 1.202.316.08.642.066.94-.034l-2.108-2.108c-.1.298-.115.624-.034.94z"/>
</svg>
