<svg width="96" height="96" viewBox="0 0 96 96" xmlns="http://www.w3.org/2000/svg">
    <g fill="none" fill-rule="evenodd">
        <path d="M0 0h95.338v96H0z"/>
        <path d="M42.372 41.333v54c29.63-.225 53.628-24.3 53.628-54H42.372z" fill="#E8EEF2" fill-rule="nonzero"/>
        <path d="M75.45 0c.9 0 1.63.768 1.63 1.715V6.54h4.008c.9 0 1.63.768 1.63 1.715v29.5c0 .948-.73 1.716-1.63 1.716-.9 0-1.63-.768-1.63-1.715V9.969H42.45v70.6h11.426V66.31c0-.947.73-1.715 1.629-1.715h10.624c.9 0 1.63.768 1.63 1.715v14.26h11.7V52.899c0-.948.729-1.716 1.629-1.716s1.63.768 1.63 1.716V80.57h5.032c.9 0 1.63.768 1.63 1.715 0 .947-.73 1.715-1.63 1.715H7.588c-.9 0-1.63-.768-1.63-1.715 0-.947.73-1.715 1.63-1.715h4.346V29.655c0-.947.73-1.715 1.629-1.715H24.79c.9 0 1.63.768 1.63 1.715v5.384h12.772V8.254c0-.947.73-1.715 1.629-1.715h4.42V1.715C45.24.768 45.97 0 46.87 0zM29.072 74.445h-3.965v6.124h3.965v-6.124zm10.12-35.976h-24v42.1h6.656V72.73c0-.947.73-1.715 1.63-1.715H30.7c.9 0 1.63.768 1.63 1.715v7.84h6.86v-42.1zM64.5 68.024h-7.366V80.57H64.5V68.024zM20.4 42.421c.9 0 1.63.768 1.63 1.715v21.487c0 .947-.73 1.715-1.63 1.715-.9 0-1.629-.768-1.629-1.715V44.136c0-.947.73-1.715 1.63-1.715zm6.673 0c.9 0 1.63.768 1.63 1.715v21.487c0 .947-.73 1.715-1.63 1.715-.9 0-1.63-.768-1.63-1.715V44.136c0-.947.73-1.715 1.63-1.715zm6.673 0c.9 0 1.63.768 1.63 1.715v21.487c0 .947-.73 1.715-1.63 1.715-.9 0-1.63-.768-1.63-1.715V44.136c0-.947.73-1.715 1.63-1.715zm22.795 3.685c.9 0 1.63.768 1.63 1.715v7.27c0 .947-.73 1.715-1.63 1.715h-6.906c-.9 0-1.63-.768-1.63-1.715v-7.27c0-.947.73-1.715 1.63-1.715zm15.27 0c.9 0 1.63.768 1.63 1.715v7.27c0 .947-.73 1.715-1.63 1.715h-6.907c-.9 0-1.629-.768-1.629-1.715v-7.27c0-.947.73-1.715 1.63-1.715zm-16.899 3.43h-3.648v3.84h3.648v-3.84zm15.27 0h-3.648v3.84h3.647v-3.84zm9.295-4.27c.217-1.517 2.156-1.976 2.965-.7.442.71.33 1.679-.28 2.242-1.111 1.025-2.906.004-2.685-1.541zM56.541 31.11c.9 0 1.63.768 1.63 1.715v7.27c0 .947-.73 1.715-1.63 1.715h-6.906c-.9 0-1.63-.768-1.63-1.715v-7.27c0-.947.73-1.715 1.63-1.715zm15.27 0c.9 0 1.63.768 1.63 1.715v7.27c0 .947-.73 1.715-1.63 1.715h-6.907c-.9 0-1.629-.768-1.629-1.715v-7.27c0-.947.73-1.715 1.63-1.715zm-16.899 3.43h-3.648v3.84h3.648v-3.84zm15.27 0h-3.648v3.84h3.647v-3.84zM23.16 31.37h-7.969v3.67h7.969v-3.67zm33.38-15.257c.9 0 1.63.768 1.63 1.715v7.27c0 .947-.73 1.715-1.63 1.715h-6.906c-.9 0-1.63-.768-1.63-1.715v-7.27c0-.947.73-1.715 1.63-1.715zm15.27 0c.9 0 1.63.768 1.63 1.715v7.27c0 .947-.73 1.715-1.63 1.715h-6.907c-.9 0-1.629-.768-1.629-1.715v-7.27c0-.947.73-1.715 1.63-1.715zm-16.899 3.43h-3.648v3.84h3.648v-3.84zm15.27 0h-3.648v3.84h3.647v-3.84zM73.82 3.43H48.499V6.54H73.82V3.43z" fill="#B0BFC7" fill-rule="nonzero"/>
    </g>
</svg>
