<svg xmlns="http://www.w3.org/2000/svg" width="25" height="24" viewBox="0 0 25 24">
   <path fill="currentColor" d="M17.078 2c.4 0 .731.302.776.69l.005.091v.781h1.016c1.668 0 3.034 1.313 3.12 2.96l.005.165v4.454c0 .431-.35.78-.781.78-.4 0-.731-.3-.776-.69l-.006-.09V6.687c0-.82-.635-1.495-1.44-1.557l-.122-.005h-1.016v.781c0 .432-.35.782-.78.782-.402 0-.732-.302-.777-.69l-.005-.092v-.781h-3.555v.781c0 .432-.35.782-.781.782-.4 0-.73-.302-.776-.69l-.005-.092v-.781H7.664v.781c0 .432-.35.782-.781.782-.4 0-.731-.302-.776-.69l-.005-.092v-.781h-.977c-.82 0-1.495.636-1.558 1.44l-.005.122v12.188c0 .82.636 1.495 1.441 1.558l.122.005h5.977c.431 0 .78.35.78.78 0 .401-.3.732-.69.777l-.09.005H5.125c-1.668 0-3.034-1.313-3.12-2.96L2 18.876V6.687c0-1.667 1.313-3.034 2.96-3.12l.165-.005h.977v-.78c0-.432.35-.782.78-.782.401 0 .732.302.777.69l.005.091v.781h3.516v-.78c0-.432.35-.782.78-.782.402 0 .732.302.777.69l.005.091v.781h3.555v-.78c0-.432.35-.782.781-.782zm.195 10.547c2.607 0 4.727 2.12 4.727 4.726C22 19.88 19.88 22 17.273 22c-2.606 0-4.726-2.12-4.726-4.727 0-2.606 2.12-4.726 4.726-4.726zm0 1.562c-1.744 0-3.164 1.42-3.164 3.164 0 1.745 1.42 3.165 3.164 3.165 1.745 0 3.165-1.42 3.165-3.165 0-1.744-1.42-3.164-3.165-3.164zm0 .782c.401 0 .731.301.776.69l.006.09v.821h.351c.432 0 .782.35.782.781 0 .401-.302.731-.69.776l-.092.006h-1.133c-.4 0-.73-.302-.776-.69l-.005-.092v-1.601c0-.432.35-.781.781-.781zm-6.856 1.276c.414 0 .75.335.75.75 0 .414-.336.75-.75.75h-3.5c-.415 0-.75-.336-.75-.75 0-.415.335-.75.75-.75h3.5zm0-3.334c.414 0 .75.336.75.75 0 .415-.336.75-.75.75h-3.5c-.415 0-.75-.335-.75-.75 0-.414.335-.75.75-.75h3.5zM17.083 9.5c.415 0 .75.336.75.75s-.335.75-.75.75H6.917c-.415 0-.75-.336-.75-.75s.335-.75.75-.75h10.166z" />
   
</svg>
