<svg width="25" height="24" xmlns="http://www.w3.org/2000/svg">
    <path fill="currentColor" d="M12.5 2A2.5 2.5 0 0 1 15 4.5v.072c0 .216.13.41.336.499.203.09.44.046.591-.102l.17-.163a2.5 2.5 0 0 1 3.417 3.65l-.043.043a.542.542 0 0 0-.109.598.833.833 0 0 1 .04.108l.01.05.037.052a.54.54 0 0 0 .33.187l.08.006H20a2.5 2.5 0 1 1 0 5h-.072c-.216 0-.41.13-.499.336a.539.539 0 0 0 .102.591l.163.17a2.5 2.5 0 0 1-3.65 3.417l-.043-.043a.545.545 0 0 0-.606-.105.54.54 0 0 0-.328.492v.142a2.5 2.5 0 0 1-5 0v-.056c-.005-.222-.146-.418-.403-.515a.539.539 0 0 0-.591.102l-.17.163a2.5 2.5 0 0 1-3.417-3.65l.043-.043a.545.545 0 0 0 .105-.606.54.54 0 0 0-.492-.328H5a2.5 2.5 0 0 1 0-5h.056c.222-.005.418-.146.515-.403a.539.539 0 0 0-.102-.591l-.163-.17a2.5 2.5 0 0 1 3.65-3.417l.043.043a.542.542 0 0 0 .598.109.833.833 0 0 1 .108-.04l.05-.01.052-.037a.54.54 0 0 0 .187-.33L10 4.64V4.5A2.5 2.5 0 0 1 12.5 2zm0 1.667a.833.833 0 0 0-.833.833v.145a2.208 2.208 0 0 1-1.339 2.02.833.833 0 0 1-.328.068l-.027.036a2.212 2.212 0 0 1-2.027-.447l-.119-.108-.05-.05a.833.833 0 1 0-1.18 1.18l.057.057c.631.645.806 1.61.461 2.387l-.06.147a2.216 2.216 0 0 1-1.98 1.298H5A.833.833 0 0 0 5 12.9h.145c.88.004 1.674.53 2.017 1.33.365.826.19 1.79-.448 2.443l-.05.05a.833.833 0 1 0 1.18 1.18l.057-.057c.645-.631 1.61-.806 2.387-.461l.147.06a2.216 2.216 0 0 1 1.298 1.98v.075a.833.833 0 0 0 1.667 0v-.145c.004-.88.53-1.674 1.33-2.017a2.211 2.211 0 0 1 2.443.448l.05.05a.833.833 0 1 0 1.18-1.18l-.057-.057a2.205 2.205 0 0 1-.445-2.427 2.21 2.21 0 0 1 2.024-1.339H20a.833.833 0 1 0 0-1.666h-.145a2.208 2.208 0 0 1-2.02-1.339.833.833 0 0 1-.068-.328l-.036-.027a2.212 2.212 0 0 1 .447-2.027l.108-.119.05-.05a.833.833 0 1 0-1.18-1.18l-.057.057a2.205 2.205 0 0 1-2.427.445 2.21 2.21 0 0 1-1.339-2.024V4.5a.833.833 0 0 0-.833-.833zm0 5a3.333 3.333 0 1 1 0 6.666 3.333 3.333 0 0 1 0-6.666zm0 1.666a1.667 1.667 0 1 0 0 3.334 1.667 1.667 0 0 0 0-3.334z"/>
</svg>
