<svg width="16" height="16" viewBox="0 0 16 16" xmlns="http://www.w3.org/2000/svg">
    <path fill="currentColor" d="M13.4 9.8a.6.6 0 0 1 .596.53l.004.07v1.8a1.8 1.8 0 0 1-1.694 1.797L12.2 14h-1.8a.6.6 0 0 1-.07-1.196l.07-.004h1.8a.6.6 0 0 0 .596-.53l.004-.07v-1.8a.6.6 0 0 1 .6-.6zm-10.8 0a.6.6 0 0 1 .596.53l.004.07v1.8a.6.6 0 0 0 .53.596l.07.004h1.8a.6.6 0 0 1 .07 1.196L5.6 14H3.8a1.8 1.8 0 0 1-1.797-1.694L2 12.2v-1.8a.6.6 0 0 1 .6-.6zm3-7.8a.6.6 0 0 1 .07 1.196L5.6 3.2H3.8a.6.6 0 0 0-.596.53L3.2 3.8v1.8a.6.6 0 0 1-1.196.07L2 5.6V3.8a1.8 1.8 0 0 1 1.694-1.797L3.8 2h1.8zm6.6 0a1.8 1.8 0 0 1 1.797 1.694L14 3.8v1.8a.6.6 0 0 1-1.196.07L12.8 5.6V3.8a.6.6 0 0 0-.53-.596L12.2 3.2h-1.8a.6.6 0 0 1-.07-1.196L10.4 2h1.8z"/>
</svg>
