<svg xmlns="http://www.w3.org/2000/svg" width="24" height="24" viewBox="0 0 24 24">
    <path fill="currentColor" d="M16.167 12.9h5l.069.003.112.019.097.03.082.036.087.053.091.072.069.07c.029.034.055.069.078.105l.055.1.03.069.023.067.03.133.004.038.006.105v5.402c0 .497-.373.9-.833.9-.428 0-.78-.348-.828-.795l-.006-.105V15.88l-2.444 2.482c-2.022 2.186-4.942 3.098-7.733 2.416-2.79-.682-5.062-2.863-6.017-5.777-.153-.469.074-.983.508-1.15.434-.165.91.08 1.064.55.763 2.33 2.58 4.075 4.813 4.62 2.153.527 4.402-.133 6.027-1.766l.178-.186 2.334-2.37-2.896.002c-.428 0-.78-.348-.828-.796l-.006-.105c0-.461.322-.842.736-.894l.098-.006zm-8.334-1.8h-5l-.074-.004-.106-.017-.038-.01-.051-.017c-.063-.024-.123-.055-.178-.093l-.09-.071-.07-.072c-.028-.032-.053-.066-.076-.101l-.058-.103-.039-.095-.021-.071-.026-.141L2 10.236 2 4.798c0-.497.373-.9.833-.9.428 0 .78.348.828.795l.006.105v3.32l2.444-2.48c2.022-2.186 4.942-3.098 7.733-2.416 2.79.682 5.062 2.863 6.017 5.777.153.469-.074.983-.508 1.149-.434.166-.91-.08-1.064-.548-.763-2.331-2.58-4.076-4.813-4.622-2.153-.526-4.402.134-6.027 1.767l-.178.186-2.334 2.368h2.896c.428 0 .78.348.828.796l.006.105c0 .461-.322.842-.736.894l-.098.006z"/>
</svg>
