<svg xmlns="http://www.w3.org/2000/svg" width="24" height="24" viewBox="0 0 24 24">
    <path fill="currentColor" d="M21 17c.552 0 1 .448 1 1 0 .513-.386.936-.883.993L21 19H8c-.552 0-1-.448-1-1 0-.513.386-.936.883-.993L8 17h13zM3.01 17c.552 0 1 .448 1 1 0 .513-.386.936-.883.993L3 19c-.552 0-1-.448-1-1 0-.513.386-.936.883-.993L3.01 17zM21 11c.552 0 1 .448 1 1 0 .513-.386.936-.883.993L21 13H8c-.552 0-1-.448-1-1 0-.513.386-.936.883-.993L8 11h13zM3.01 11c.552 0 1 .448 1 1 0 .513-.386.936-.883.993L3 13c-.552 0-1-.448-1-1 0-.513.386-.936.883-.993L3.01 11zM21 5c.552 0 1 .448 1 1 0 .513-.386.936-.883.993L21 7H8c-.552 0-1-.448-1-1 0-.513.386-.936.883-.993L8 5h13zM3.01 5c.552 0 1 .448 1 1 0 .513-.386.936-.883.993L3 7c-.552 0-1-.448-1-1 0-.513.386-.936.883-.993L3.01 5z" />
</svg>
