<svg xmlns="http://www.w3.org/2000/svg" width="24" height="24" viewBox="0 0 24 24">
   <path fill="currentColor" d="M11.65 2.082c.19-.094.406-.107.603-.04l.096.04 9.22 4.61c.543.271.573 1.02.09 1.345l-.09.052-3.212 1.606 3.212 1.606c.543.272.573 1.02.09 1.345l-.09.053-3.212 1.606 3.212 1.606c.543.271.573 1.02.09 1.344l-.09.053-9.22 4.61c-.189.094-.406.107-.602.04l-.096-.04-9.22-4.61c-.543-.272-.573-1.02-.09-1.345l.09-.052 3.212-1.606-3.212-1.606c-.543-.272-.573-1.02-.09-1.345l.09-.053 3.212-1.606L2.431 8.09c-.543-.271-.573-1.02-.09-1.345l.09-.052 9.22-4.61zm4.96 13.096l-4.26 2.13c-.19.095-.407.108-.603.04l-.096-.04-4.26-2.13-2.863 1.431L12 20.345l7.472-3.736-2.862-1.43zm0-4.61l-4.26 2.13c-.19.095-.407.108-.603.041l-.096-.04-4.26-2.13L4.527 12 12 15.736 19.472 12l-2.862-1.431zM12 3.656L4.528 7.39 12 11.126l7.472-3.735L12 3.655z" />
</svg>
