<svg xmlns="http://www.w3.org/2000/svg" width="16" height="16" viewBox="0 0 16 16">
    <path fill="currentColor" d="M7.333 3.333c.369 0 .667.299.667.667 0 .342-.257.624-.589.662l-.078.005h-4c-.342 0-.623.257-.662.589l-.004.077v7.334c0 .342.257.623.589.662l.077.004h7.334c.342 0 .623-.257.662-.589l.004-.077v-4c0-.369.299-.667.667-.667.342 0 .624.257.662.589l.005.078v4c0 1.065-.833 1.935-1.883 1.996l-.117.004H3.333c-1.065 0-1.935-.833-1.996-1.883l-.004-.117V5.333c0-1.065.833-1.935 1.883-1.996l.117-.004h4zm2.59-1.995L10 1.333h4l.05.002.084.012.074.02.074.029.065.035.064.044.06.054c.024.023.045.048.065.074l.048.074.035.075.024.07.02.1.004.078v4c0 .368-.299.667-.667.667-.342 0-.624-.258-.662-.59L13.333 6V3.61L7.138 9.804c-.26.26-.682.26-.943 0-.24-.24-.259-.619-.055-.88l.055-.063 6.194-6.195H10c-.342 0-.624-.258-.662-.59L9.333 2c0-.342.258-.624.59-.662z"/>
</svg>
