<svg xmlns="http://www.w3.org/2000/svg" width="16" height="16" viewBox="0 0 16 16">
    <path fill="currentColor" d="M8 1.333c3.682 0 6.667 2.985 6.667 6.667S11.682 14.667 8 14.667 1.333 11.682 1.333 8 4.318 1.333 8 1.333zm0 1.212C4.988 2.545 2.545 4.988 2.545 8S4.988 13.455 8 13.455 13.455 11.012 13.455 8 11.012 2.545 8 2.545zm0 4.243c.31 0 .567.234.602.535l.004.07v3.637c0 .335-.271.606-.606.606-.31 0-.567-.234-.602-.535l-.004-.07V7.393c0-.335.271-.606.606-.606zm.006-2.424c.335 0 .606.271.606.606 0 .31-.234.567-.535.602L8 5.576c-.335 0-.606-.272-.606-.606 0-.311.234-.567.535-.602l.077-.004z" />
</svg>
