<svg xmlns="http://www.w3.org/2000/svg" viewBox="0 0 24 24">
    <g transform="translate(2.000000, 2.000000)">
        <path fill="currentColor" d="M10.3890413,0 L0.999777817,0 C0.447615776,0 0,0.44771525 0,1 L0,10.3913501 C0,10.6567684 0.105493357,10.9112988 0.293239998,11.0988686 L8.35861734,19.156647 C8.89756449,19.6963148 9.62998619,20 10.3937359,20 C11.1574857,20 11.8899074,19.6963148 12.4296595,19.1558418 L19.1613683,12.4226372 C20.2791936,11.2978973 20.2791936,9.48480284 19.1634684,8.36216973 L11.095991,0.292893219 C10.9084963,0.10535684 10.6541989,0 10.3890413,0 Z M1.99955563,2 L9.97478328,2 L17.747469,9.77427651 C18.0858193,10.1147279 18.0858193,10.6679723 17.7453689,11.0105305 L11.0153671,17.7420217 C10.8502749,17.9073341 10.6267851,18 10.3937359,18 L10.2782359,17.9923723 C10.0878232,17.9671043 9.90974711,17.8798476 9.77249797,17.7424151 L1.99955563,9.977 L1.99955563,2 Z" />
        <path fill="currentColor" d="M6.00467373,5 C6.55437725,5 7,5.44771525 7,6 C7,6.51283584 6.61576406,6.93550716 6.1207498,6.99327227 L5.99532627,7 C5.44562275,7 5,6.55228475 5,6 C5,5.48716416 5.38423594,5.06449284 5.8792502,5.00672773 L6.00467373,5 Z" />
    </g>
</svg>